HIERARCHY
ROOT Hips
{
    OFFSET 0.0 0.0 0.0
    CHANNELS 6 Xposition Yposition Zposition Zrotation Xrotation Yrotation
    JOINT LeftUpLeg
    {
        OFFSET 8.64259 1.95398 -2.38835
        CHANNELS 3 Zrotation Xrotation Yrotation
        JOINT LeftLeg
        {
            OFFSET 43.7702 0.0 0.0
            CHANNELS 3 Zrotation Xrotation Yrotation
            JOINT LeftFoot
            {
                OFFSET 40.6238 0.0 0.0
                CHANNELS 3 Zrotation Xrotation Yrotation
                JOINT LeftToeBase
                {
                    OFFSET 12.7242 0.0 0.0
                    CHANNELS 3 Zrotation Xrotation Yrotation
                    End Site
                    {
                        OFFSET 0 0 0
                    }
                }
            }
        }
    }
    JOINT RightUpLeg
    {
        OFFSET -8.2249 1.95398 -2.59336
        CHANNELS 3 Zrotation Xrotation Yrotation
        JOINT RightLeg
        {
            OFFSET 43.5653 0.0 0.0
            CHANNELS 3 Zrotation Xrotation Yrotation
            JOINT RightFoot
            {
                OFFSET 40.6238 0.0 0.0
                CHANNELS 3 Zrotation Xrotation Yrotation
                JOINT RightToeBase
                {
                    OFFSET 12.7242 0.0 0.0
                    CHANNELS 3 Zrotation Xrotation Yrotation
                    End Site
                    {
                        OFFSET 0 0 0
                    }
                }
            }
        }
    }
    JOINT Spine
    {
        OFFSET 0.165834 0.87714 6.61349
        CHANNELS 3 Zrotation Xrotation Yrotation
        JOINT Spine1
        {
            OFFSET 7.38962 1.71661e-05 0.0
            CHANNELS 3 Zrotation Xrotation Yrotation
            JOINT Spine2
            {
                OFFSET 11.9445 1.14441e-05 0.0
                CHANNELS 3 Zrotation Xrotation Yrotation
                JOINT Spine3
                {
                    OFFSET 14.7254 4.19617e-05 0.0
                    CHANNELS 3 Zrotation Xrotation Yrotation
                    JOINT Spine4
                    {
                        OFFSET 10.9679 0.0 0.0
                        CHANNELS 3 Zrotation Xrotation Yrotation
                        JOINT RightShoulder
                        {
                            OFFSET 2.46616 -1.6653 3.69651
                            CHANNELS 3 Zrotation Xrotation Yrotation
                            JOINT RightArm
                            {
                                OFFSET 13.0012 0.0 0.0
                                CHANNELS 3 Zrotation Xrotation Yrotation
                                JOINT RightForeArm
                                {
                                    OFFSET 28.7848 1.52588e-05 0.0
                                    CHANNELS 3 Zrotation Xrotation Yrotation
                                    JOINT RightHand
                                    {
                                        OFFSET 26.5688 1.52588e-05 0.0
                                        CHANNELS 3 Zrotation Xrotation Yrotation
                                        End Site
                                        {
                                            OFFSET 0 0 0
                                        }
                                    }
                                }
                            }
                        }
                        JOINT LeftShoulder
                        {
                            OFFSET 2.38034 -1.29275 -3.75231
                            CHANNELS 3 Zrotation Xrotation Yrotation
                            JOINT LeftArm
                            {
                                OFFSET 16.3182 6.10352e-05 0.0
                                CHANNELS 3 Zrotation Xrotation Yrotation
                                JOINT LeftForeArm
                                {
                                    OFFSET 27.0901 0.0 0.0
                                    CHANNELS 3 Zrotation Xrotation Yrotation
                                    JOINT LeftHand
                                    {
                                        OFFSET 24.5451 1.52588e-05 0.0
                                        CHANNELS 3 Zrotation Xrotation Yrotation
                                        End Site
                                        {
                                            OFFSET 0 0 0
                                        }
                                    }
                                }
                            }
                        }
                        JOINT Neck
                        {
                            OFFSET 5.0226 -0.0266342 0.0
                            CHANNELS 3 Zrotation Xrotation Yrotation
                            JOINT Head
                            {
                                OFFSET 6.69363 2.86102e-05 0.0
                                CHANNELS 3 Zrotation Xrotation Yrotation
                                End Site
                                {
                                    OFFSET 0 0 0
                                }
                            }
                        }
                    }
                }
            }
        }
    }
}
MOTION
Frames: 5
Frame Time: 0.03333333333333333
-48.3507 83.4049 66.7577 -90.84405743930975 12.764645505820594 -87.57235216437648 -30.792223057658084 -19.134118512520683 62.93866080991596 3.366857979563556 0.011838932725033165 0.4028223885903087 -41.761173571906454 -8.812588735049934 22.83969483888872 -0.0 0.0 -0.0 -2.0147580353241703 -1.2575042003011194 63.93717164012175 23.85292532935893 0.5607430687761589 2.6543853372892854 -76.8600816962706 -24.095237559007316 30.110817651117472 -0.0 0.0 -0.0 -6.745054399694567 6.323353551820874 -86.29328701968184 13.853947247916773 0.6656579882356903 5.475007086830109 1.9752636314579195 0.11544863739610871 6.690391593072058 -20.761126229086805 -1.0584233415379776 5.773208814680829 4.08406289294228 -3.241602308053791 3.927383079620706 15.416517317461816 -24.238528219604106 -115.55132486520256 -10.320850353653016 -2.7617124124710455 29.889069549034556 -3.449346148865168 -0.10980416029838425 3.6453530517925614 -0.0 0.0 -0.0 -26.076614722033096 -51.44883831617307 128.6569078743741 -37.78966079045158 8.34384813651128 -24.060795139050416 -7.1256219508906975 1.3725380027466214 -21.77893706617353 -0.0 0.0 -0.0 13.45540896762818 0.422737691963099 3.5826199645579107 -0.0 0.0 -0.0 
-49.94451607260365 83.81902656119193 65.51221132833004 -89.67196203151086 -13.472532918228838 -86.5129124855065 -27.20669241655961 -16.82528101422566 62.86308653945738 4.067477797782874 -0.0079678484346121 -0.2243807009225997 -39.98842823562942 -8.438506917740483 22.92316044712903 -0.0 0.0 -0.0 -5.252789241198446 -3.6276512309117432 69.23938134901825 25.354496311317337 0.1868247474459028 0.8305306228730919 -58.64212299238596 -10.785173163136959 19.08098314338275 -0.0 0.0 -0.0 -5.216963738042901 4.897948937124001 -86.37947844844246 12.936378563593463 0.38083364458113866 3.3581946097427853 1.9620680268627118 0.08615976954261886 5.029144457249653 -20.65483632005128 -1.1154953124909295 6.115900808617397 2.160918809255151 -6.811389004933693 -4.457235637271144 8.30859647423471 -9.032820112732404 -94.801120078658 9.435884560635355 1.1027369551057766 13.30203654824969 -4.416757644007284 -0.7946882372961371 20.389785816511516 -0.0 0.0 -0.0 -26.412800332067196 -57.156202069295674 133.38663222159002 -29.504570316644323 4.912523475348562 -18.504934946955565 -5.125813839828171 0.6737849195913969 -14.967203780663208 -0.0 0.0 -0.0 19.897401077593706 1.3252939523917322 7.545271666903759 -0.0 0.0 -0.0 
-51.53833214520729 84.23315312238385 64.26672265666006 -87.96634674159357 -36.091396227253476 -85.07077418383885 -23.92070087898411 -14.545304770525034 62.13325546529052 5.296057742807634 -0.1109249484395991 -2.3980404958680013 -30.00829818013872 -6.505992459287515 23.94506678370642 -0.0 0.0 -0.0 -7.468078376009068 -5.627999644311063 73.97016287107952 26.769114131734266 -0.27066595165559887 -1.1374613820478021 -41.39880867473197 -2.785538243590041 7.363246432615764 -0.0 0.0 -0.0 -3.6273199495465382 3.4132411953043036 -86.51035782257809 12.422619255520443 0.17299873407181535 1.5894671081160168 2.103423382734166 0.07084121003755446 3.858028006554215 -21.066075555007615 -1.1250675651345685 6.045427104703311 -0.19235710031082054 -8.650316012902426 -11.354746575752142 -4.425227756481993 3.405284372241539 -75.14649435852338 34.432540871473606 -0.8034800534514513 -2.592622734347931 -5.723349834218213 -1.9680721687268805 37.9265469381235 -0.0 0.0 -0.0 -31.246679375280277 -64.59780244221072 132.2728627707601 -26.26509599357977 3.2705060842722693 -13.952531072398703 -0.33755795340004846 0.04095137646050199 -13.831311327755543 -0.0 0.0 -0.0 24.445325973790933 -0.013417519284402709 -0.06194103010460094 -0.0 0.0 -0.0 
-53.13214821781094 84.64727968357579 63.0212339849901 -85.76550349257442 -53.56111856662307 -83.44615550982206 -20.46108709734051 -12.663231244106521 63.166963390270446 3.707723100154641 -0.07040820734795433 -2.17502836864433 -39.318909660593754 -8.190182611110892 22.66428768195872 -0.0 0.0 -0.0 -8.999329420184257 -7.350039163019269 78.44069814031782 27.741174644615963 -0.3572034694007401 -1.446504167254735 -21.561187802925684 0.1784094147804721 -0.9369588421072903 -0.0 0.0 -0.0 -1.9476391108721407 1.8422076031075574 -86.80454661442332 11.948737290016854 0.0033443869719403108 0.03194740153248524 2.7838403694552305 0.07180664332222886 2.954892507366051 -22.569551469401084 -1.2707136806102417 6.361823363863129 -3.1461387415806117 -8.543222380775811 -17.5446035532632 -21.114041382532257 10.387810875793996 -52.000908902852494 63.342823725905575 -5.113860503672696 -8.280369161419141 -16.17331058802282 -7.098896993303339 47.16879741421149 -0.0 0.0 -0.0 -44.690024064375905 -72.44725802566225 121.40242107496447 -25.810236866893835 2.913185651958683 -12.66533045230085 7.587576249707511 -0.9681192047122593 -14.521911979665587 -0.0 0.0 -0.0 26.814807881356735 -2.0035402142495244 -8.391148865088361 -0.0 0.0 -0.0 
-54.72596429041459 85.06140624476772 61.77574531332013 -77.58018013064849 -70.26389886167715 -75.46990757980969 -18.872315886944723 -11.926626325124309 64.29964006438011 -0.49939191424433077 -0.013668886422212919 3.1356897880222645 -42.13969896968613 -6.884350313427014 17.747457372377603 -0.0 0.0 -0.0 -11.314820765874497 -9.782924737946148 81.64744755736395 26.3724934118564 0.23409873795597355 0.9991398866279408 1.6355127586130558 0.015935718179794285 1.116418702598673 -0.0 0.0 -0.0 -1.52677596472431 1.4185767248706942 -85.78188037969699 10.761225703224351 -0.15335095103056204 -1.6280710254960653 1.4992053091286976 0.008343746720635913 0.6378026164716409 -19.244892187120943 -1.4171280903015682 8.344295267125121 -4.523044564958676 -16.55716145005019 -27.454105110535416 -27.97314777725632 9.588796914473834 -37.220457891661816 52.51548185194239 -13.791178357461838 -27.548721749134756 -6.457171722908254 -3.395893829722707 55.444034385210124 -0.0 0.0 -0.0 171.65278638742808 2.4923541557314297 0.18191068093182383 16.624343144960243 -1.4786926381298018 -10.095379788911055 -6.554821243283193 -1.8517551858651657 31.519839793757665 -0.0 0.0 -0.0 37.01208649474288 14.86425248471684 42.585256760881045 -0.0 0.0 -0.0 
